# xmcd
#
# Track frame offsets:
#	150
#	43101
#	66321
#	90659
#	124740
#
# Disc length: 2350 seconds
#
# Revision: 1
# Processed by: cddbd v1.5.2PL0 Copyright (c) Steve Scherf et al.
# Submitted via: audiograbber 1.83.01
#
DISCID=41092c05
DTITLE=Grateful Dead - 78-11-24 Capitol Theatre, Passaic NJ
DYEAR=1900
DGENRE=
TTITLE0=Loser
TTITLE1=Promised Land
TTITLE2=I Need A Miracle
TTITLE3=Good Lovin'
TTITLE4=Friend Of The Devil
EXTD=
EXTT0=
EXTT1=
EXTT2=
EXTT3=
EXTT4=
PLAYORDER=
